<svg xmlns="http://www.w3.org/2000/svg" viewBox="0 0 512 512" enable-background="new 0 0 512 512"><path d="m106.65 234.66h63.991v106.66h106.66v63.991h-106.66v106.64h-63.991v-106.64h-106.65v-63.991h106.65v-106.66m149.35-234.66l256 128-256 128-64.02-32.02v-10.656h-21.307l-170.67-85.33 256-128m256 384l-256 128-64.02-32.01v-53.35h63.99l.033.013.053-.013h42.573v-21.287l128.05-64.03 85.33 42.678m0-128l-213.38 106.69v-42.704h-42.659-63.99v-53.33l64.02 32.02 170.67-85.34 85.33 42.672m-512 0l85.32-42.665-.007 42.665v42.658l-85.32-42.658"/></svg>